<svg width="455" height="455" viewBox="0 0 455 455" fill="none" xmlns="http://www.w3.org/2000/svg">
<path d="M411.774 292.792V118.182C411.774 111.445 410.331 104.996 407.713 99.1488C424.47 106.621 435.781 123.224 435.781 142.089V316.699C435.781 343.033 414.213 363.838 387.768 363.838H207.722L116.253 421.283C99.6789 433.226 99.6789 424.77 99.6789 415.086V392.708L183.715 339.931H363.761C390.206 339.931 411.774 319.126 411.774 292.792Z" fill="black" style="fill:var(--barq-primary, black);fill-opacity:1;"/>
<path d="M75.6718 357.431V339.931C68.5838 339.931 61.8461 338.388 55.7802 335.635C59.9171 344.746 66.9272 352.405 75.6718 357.431Z" fill="black" style="fill:var(--barq-primary, black);fill-opacity:1;"/>
<path d="M411.781 118.261V292.766C411.781 319.084 390.219 339.877 363.783 339.877H183.79L92.3482 397.287C75.7789 409.224 75.7789 400.773 75.7789 391.095V339.877C49.3424 339.877 27.7808 318.412 27.7808 292.766L27.7808 118.261C27.7808 91.9427 49.3424 71.1497 75.7789 71.1497H363.768C390.857 71.1497 411.781 92.6146 411.781 118.261Z" fill="white" style="fill:var(--barq-secondary, white);fill-opacity:1;"/>
<path fill-rule="evenodd" clip-rule="evenodd" d="M209.225 192.639C215.553 192.639 226.098 181.231 226.098 165.318C226.098 144.035 205.582 125.15 177.59 125.15H126.781V279.685H192.736C223.701 279.685 244.216 256.965 244.216 232.519C244.216 209.224 225.714 192.639 209.225 192.639ZM191.682 172.698C191.682 180.655 184.971 185.065 176.056 185.065H166.277V160.811H176.343C185.163 160.811 191.682 165.221 191.682 172.698ZM166.278 242.394H186.505C195.9 242.394 204.911 237.792 204.911 227.63C204.911 218.619 198.393 213.155 186.793 213.155L166.278 213.059V242.394Z" fill="black" style="fill:var(--barq-primary, black);fill-opacity:1;"/>
<path fill-rule="evenodd" clip-rule="evenodd" d="M305.785 225.713H271.753L264.85 125.15H312.4L305.785 225.713ZM312.783 263.005C312.783 275.371 301.855 285.15 288.817 285.15C275.683 285.15 264.85 275.084 264.85 262.525C264.85 250.254 275.779 240.38 288.625 240.38C301.855 240.38 312.783 250.83 312.783 263.005Z" fill="black" style="fill:var(--barq-primary, black);fill-opacity:1;"/>
</svg>
